<svg width="37" height="38" viewBox="0 0 37 38" fill="none" xmlns="http://www.w3.org/2000/svg">
<path d="M17.746 1.85426C18.1892 1.85426 18.5523 1.52668 18.8355 0.871503H20.4605V10.1428H19.2048C18.7124 9.67306 18.2753 8.90664 17.8937 7.84353C17.5121 6.76805 17.1981 5.92128 16.9519 5.30319C16.7057 4.6851 16.3979 4.11646 16.0286 3.59727C15.2161 2.44763 14.0897 1.77391 12.6493 1.57612V0.0556278C14.2005 0.203969 15.6901 0.723162 17.1181 1.61321C17.3766 1.77391 17.5859 1.85426 17.746 1.85426ZM12.6493 25.7186C15.3577 25.7186 17.2843 24.3588 18.4292 21.6392C18.8232 20.6997 19.1063 19.5748 19.2787 18.2645L21.0329 18.691C20.6513 21.5712 19.7711 23.7284 18.3923 25.1623C17.0135 26.5839 15.0992 27.3565 12.6493 27.4802V25.7186ZM11.1166 27.4802C7.7804 27.3071 5.09666 25.9906 3.06538 23.5306C1.02179 21.0459 0 17.7824 0 13.7401C0 9.80904 1.05873 6.55172 3.17618 3.96812C5.2567 1.4216 7.90351 0.098894 11.1166 0V1.55758C8.39594 1.81718 6.58626 4.01139 5.68757 8.14021C5.35518 9.67306 5.18899 11.515 5.18899 13.6659C5.18899 15.8045 5.35518 17.5846 5.68757 19.0062C6.01996 20.4278 6.46315 21.6021 7.01714 22.5293C8.02662 24.2476 9.39311 25.2736 11.1166 25.6074V27.4802Z" fill="#BA3E2D"/>
<path d="M28.4605 11.1235V33.2263C28.4605 34.2029 28.5652 34.8333 28.7744 35.1177C28.9837 35.3896 29.1745 35.5689 29.3469 35.6554C29.5316 35.7296 29.7347 35.7914 29.9563 35.8408C30.5841 36.0015 31.0581 36.1808 31.3782 36.3785V37.4726H21.0002V36.3785C21.271 36.2055 21.6219 36.0633 22.0528 35.9521C22.496 35.8285 22.8037 35.7296 22.9761 35.6554C23.1607 35.5812 23.3208 35.4576 23.4562 35.2845C23.7147 34.9137 23.844 34.2276 23.844 33.2263V11.1235H28.4605ZM33.945 11.1235C34.4497 11.1235 35.293 11.0308 36.4748 10.8454V19.616H35.2191C35.0468 19.1463 34.8929 18.6518 34.7575 18.1326C34.6344 17.6011 34.4928 17.0819 34.3328 16.575C34.1727 16.0558 33.9881 15.5614 33.7788 15.0916C33.5695 14.6095 33.2987 14.1892 32.9663 13.8307C32.2276 13.0396 31.2366 12.644 29.9932 12.644V11.1235H33.945ZM15.8851 10.8454C16.476 11.0308 16.9253 11.1235 17.2331 11.1235H22.3113V12.644C20.5385 12.644 19.2828 13.4661 18.5442 15.1102C18.1872 15.889 17.904 16.7234 17.6948 17.6134C17.4855 18.4911 17.3008 19.1586 17.1408 19.616H15.8481V10.8825L15.8851 10.8454Z" fill="white"/>
<path d="M31.378 36.3785C31.058 36.1808 30.584 36.0015 29.9561 35.8408C29.7346 35.7914 29.5314 35.7296 29.3468 35.6554C29.1744 35.5689 28.9836 35.3896 28.7743 35.1177C28.565 34.8333 28.4604 34.2029 28.4604 33.2263V11.1235H23.8439V33.2263C23.8439 34.2276 23.7146 34.9137 23.4561 35.2845C23.3206 35.4576 23.1606 35.5812 22.9759 35.6554C22.8036 35.7296 22.4958 35.8285 22.0526 35.9521C21.6218 36.0633 21.2709 36.2055 21.0001 36.3785V37.4726H31.378V36.3785ZM22.3112 11.1235H17.233V10.5961H22.8364V13.1714H22.3112C21.5077 13.1714 20.855 13.3574 20.3271 13.703C19.7987 14.0489 19.3585 14.578 19.0221 15.3265V15.3306C18.6807 16.0755 18.4073 16.8768 18.2055 17.735V17.737C17.995 18.6197 17.8062 19.3081 17.6372 19.7911L17.512 20.1435H15.3228V10.6641L15.7393 10.2458L16.0409 10.3427C16.6215 10.5249 17.0085 10.5961 17.233 10.5961V11.1235C16.9252 11.1235 16.4759 11.0308 15.8849 10.8454L15.848 10.8825V19.616H17.1406C17.3007 19.1586 17.4853 18.4911 17.6946 17.6134C17.9039 16.7234 18.1871 15.889 18.5441 15.1102C19.2827 13.4661 20.5384 12.644 22.3112 12.644V11.1235ZM37 20.1435H34.8517L34.7266 19.7994C34.548 19.3126 34.3879 18.801 34.2485 18.2665L34.2464 18.2521C34.1264 17.7337 33.9878 17.227 33.832 16.7337L33.8299 16.7316C33.6759 16.2317 33.4986 15.7572 33.2985 15.308L33.2965 15.3018C33.1092 14.8707 32.8713 14.5007 32.5824 14.1892V14.1913C31.9585 13.5231 31.1152 13.1714 29.9931 13.1714H29.4678V10.5961H33.9448V11.1235H29.9931V12.644C31.2365 12.644 32.2275 13.0396 32.9661 13.8307C33.2985 14.1892 33.5694 14.6095 33.7786 15.0916C33.9879 15.5614 34.1726 16.0558 34.3326 16.575C34.4927 17.0819 34.6342 17.6011 34.7573 18.1326C34.8928 18.6518 35.0466 19.1463 35.219 19.616H36.4747V10.8454C35.2929 11.0308 34.4496 11.1235 33.9448 11.1235V10.5961C34.4046 10.5961 35.2118 10.5094 36.3926 10.3241L37 10.2293V20.1435ZM28.9856 33.2263C28.9856 33.699 29.0117 34.0692 29.0575 34.345C29.103 34.6191 29.1614 34.7486 29.1929 34.7962C29.3716 35.0282 29.4983 35.1329 29.5684 35.1733C29.6385 35.2006 29.7115 35.2298 29.79 35.2536L30.071 35.3257L30.0854 35.3299C30.733 35.4956 31.2666 35.6907 31.653 35.9294L31.9033 36.0839V38H20.4748V36.088L20.719 35.9335C21.0479 35.7235 21.4504 35.5629 21.9111 35.4432C22.3542 35.3196 22.6321 35.2299 22.7687 35.1712L22.781 35.165C22.8665 35.1306 22.9472 35.0709 23.0272 34.9734C23.0957 34.8721 23.1741 34.6929 23.2304 34.3945C23.2869 34.0943 23.3186 33.7069 23.3186 33.2263V10.5961H28.9856V33.2263Z" fill="black"/>
</svg>
